TITLE ""
FILE "DISC2Track16.mp3" MP3
  TRACK 01 AUDIO
    TITLE "DISC2Track16_01"
    INDEX 01 00:00:00
  TRACK 02 AUDIO
    TITLE "DISC2Track16_02"
    INDEX 01 00:01:51
  TRACK 03 AUDIO
    TITLE "DISC2Track16_03"
    INDEX 01 00:01:59
  TRACK 04 AUDIO
    TITLE "DISC2Track16_04"
    INDEX 01 00:04:37
  TRACK 05 AUDIO
    TITLE "DISC2Track16_05"
    INDEX 01 00:07:57
  TRACK 06 AUDIO
    TITLE "DISC2Track16_06"
    INDEX 01 00:10:60
  TRACK 07 AUDIO
    TITLE "DISC2Track16_07"
    INDEX 01 00:10:71
  TRACK 08 AUDIO
    TITLE "DISC2Track16_08"
    INDEX 01 00:14:69
  TRACK 09 AUDIO
    TITLE "DISC2Track16_09"
    INDEX 01 00:18:61
  TRACK 10 AUDIO
    TITLE "DISC2Track16_10"
    INDEX 01 00:22:16
  TRACK 11 AUDIO
    TITLE "DISC2Track16_11"
    INDEX 01 00:22:30
  TRACK 12 AUDIO
    TITLE "DISC2Track16_12"
    INDEX 01 00:25:71
  TRACK 13 AUDIO
    TITLE "DISC2Track16_13"
    INDEX 01 00:28:63
  TRACK 14 AUDIO
    TITLE "DISC2Track16_14"
    INDEX 01 00:31:21
  TRACK 15 AUDIO
    TITLE "DISC2Track16_15"
    INDEX 01 00:31:36
  TRACK 16 AUDIO
    TITLE "DISC2Track16_16"
    INDEX 01 00:34:70
  TRACK 17 AUDIO
    TITLE "DISC2Track16_17"
    INDEX 01 00:38:07
  TRACK 18 AUDIO
    TITLE "DISC2Track16_18"
    INDEX 01 00:40:57
  TRACK 19 AUDIO
    TITLE "DISC2Track16_19"
    INDEX 01 00:40:73
  TRACK 20 AUDIO
    TITLE "DISC2Track16_20"
    INDEX 01 00:44:68
  TRACK 21 AUDIO
    TITLE "DISC2Track16_21"
    INDEX 01 00:49:13
  TRACK 22 AUDIO
    TITLE "DISC2Track16_22"
    INDEX 01 00:53:05
  TRACK 23 AUDIO
    TITLE "DISC2Track16_23"
    INDEX 01 00:53:22
  TRACK 24 AUDIO
    TITLE "DISC2Track16_24"
    INDEX 01 00:57:00
  TRACK 25 AUDIO
    TITLE "DISC2Track16_25"
    INDEX 01 01:00:44
  TRACK 26 AUDIO
    TITLE "DISC2Track16_26"
    INDEX 01 01:03:52
  TRACK 27 AUDIO
    TITLE "DISC2Track16_27"
    INDEX 01 01:03:70
  TRACK 28 AUDIO
    TITLE "DISC2Track16_28"
    INDEX 01 01:06:60
  TRACK 29 AUDIO
    TITLE "DISC2Track16_29"
    INDEX 01 01:10:01
  TRACK 30 AUDIO
    TITLE "DISC2Track16_30"
    INDEX 01 01:12:53
  TRACK 31 AUDIO
    TITLE "DISC2Track16_31"
    INDEX 01 01:12:71
  TRACK 32 AUDIO
    TITLE "DISC2Track16_32"
    INDEX 01 01:15:18
  TRACK 33 AUDIO
    TITLE "DISC2Track16_33"
    INDEX 01 01:17:54
  TRACK 34 AUDIO
    TITLE "DISC2Track16_34"
    INDEX 01 01:19:55
  TRACK 35 AUDIO
    TITLE "DISC2Track16_35"
    INDEX 01 01:19:71
  TRACK 36 AUDIO
    TITLE "DISC2Track16_36"
    INDEX 01 01:22:65
  TRACK 37 AUDIO
    TITLE "DISC2Track16_37"
    INDEX 01 01:25:34
  TRACK 38 AUDIO
    TITLE "DISC2Track16_38"
    INDEX 01 01:27:58
  TRACK 39 AUDIO
    TITLE "DISC2Track16_39"
    INDEX 01 01:27:74
  TRACK 40 AUDIO
    TITLE "DISC2Track16_40"
    INDEX 01 01:29:38
  TRACK 41 AUDIO
    TITLE "DISC2Track16_41"
    INDEX 01 01:31:62
  TRACK 42 AUDIO
    TITLE "DISC2Track16_42"
    INDEX 01 01:33:53
  TRACK 43 AUDIO
    TITLE "DISC2Track16_43"
    INDEX 01 01:33:71
  TRACK 44 AUDIO
    TITLE "DISC2Track16_44"
    INDEX 01 01:38:11
  TRACK 45 AUDIO
    TITLE "DISC2Track16_45"
    INDEX 01 01:42:52
  TRACK 46 AUDIO
    TITLE "DISC2Track16_46"
    INDEX 01 01:46:66
